<?xml version="1.0" encoding="utf-8"?>
<!-- Generator: Adobe Illustrator 22.1.0, SVG Export Plug-In . SVG Version: 6.00 Build 0)  -->
<svg version="1.1" id="ahk_logo_nigeria_desktop" xmlns="http://www.w3.org/2000/svg" xmlns:xlink="http://www.w3.org/1999/xlink"
	 x="0px" y="0px" width="406px" height="80px" viewBox="0 0 406 80" enable-background="new 0 0 406 80" xml:space="preserve">
<path fill="#D2DDEA" d="M79.817,0H0v80h79.817c5.039-12.995,7.101-26.861,7.144-40.096C87.014,25.519,84.663,11.726,79.817,0
	L79.817,0z"/>
<path fill="none" d="M79.817,0H0v80h79.817c5.039-12.995,7.101-26.861,7.144-40.096C87.014,25.519,84.663,11.726,79.817,0L79.817,0z
	"/>
<path fill="#004B89" d="M173,80H79.817c4.962-12.851,7.096-26.37,7.159-40c0.067-14.086-2.274-28.25-7.159-40H173l0.332,80H173z"/>
<path fill="none" d="M173,80L173,80H79.817c4.962-12.851,7.096-26.37,7.159-40c0.067-14.086-2.274-28.25-7.159-40H173"/>
<path fill="#FFFFFF" d="M133.106,14.64c0-0.731,0.591-1.317,1.322-1.317h2.649c0.736,0,1.327,0.587,1.327,1.317l-0.005,24.024
	c0,0.726-0.591,1.317-1.322,1.317h-2.63c-0.736,0-1.337-0.591-1.337-1.317v-9.894h-10.755l0.005,9.894
	c0,0.726-0.591,1.317-1.322,1.317h-2.649c-0.731,0-1.327-0.591-1.327-1.317V14.64c0-0.731,0.596-1.317,1.327-1.317h2.654
	c0.735,0,1.327,0.587,1.327,1.317v9.664h10.74L133.106,14.64z"/>
<path fill="#FFFFFF" d="M165.822,14.64c0.654-0.726,0.755-1.327-0.139-1.317l-3.918,0.024c-0.736,0-1.433-0.159-2.611,1.009
	l-9.889,11.034V14.663c0-0.731-0.562-1.317-1.293-1.317h-2.697c-0.726,0-1.322,0.587-1.322,1.317v24.019
	c0,0.726,0.592,1.317,1.322,1.317h2.707c0.731,0,1.284-0.591,1.284-1.317v-5.591l4.548-5.053l6.577,10.644
	c0.452,0.726,1.077,1.317,1.812,1.317H166c0.731,0,0.962-0.591,0.514-1.317l-9.125-14.625L165.822,14.64z"/>
<path fill="#FFFFFF" d="M103.735,13.322c1,0,1.529,0.587,1.774,1.317l8.216,24.024c0.25,0.726-0.139,1.317-0.87,1.317h-2.63
	c-0.736,0-1.553-0.591-1.798-1.317l-1.755-5.413h-9.038l-1.745,5.413c-0.245,0.726-1.067,1.317-1.798,1.317h-2.63
	c-0.731,0-1.125-0.591-0.87-1.317l8.216-24.024c0.245-0.731,0.774-1.317,1.774-1.317H103.735L103.735,13.322z M98.606,28.755h6.038
	l-3.005-9.308L98.606,28.755z"/>
<path fill-rule="evenodd" clip-rule="evenodd" fill="#4A75AA" d="M60.71,49.774l1.827,0.173l-0.078,2.52h-1.944l-0.194,1.381h2.177
	l-0.155,2.623l-2.41-0.069l-0.35,1.277l2.527,0.276l-0.933,2.692l-2.605-0.414l-0.467,1.622l2.955,0.207l-1.244,2.071l-2.527-0.173
	l-1.127,1.484l1.711,1.208l-2.41,2.002l-2.488-1.381l-1.944,1.898l0.467,1.484l-3.305,0.966l-0.933-1.588l-1.594,0.104v2.347H42.01
	l0.117-2.278l-2.294-0.173l-0.544,2.174l-4.004-1.622l1.711-1.76l-1.711-0.794l-2.527,2.105l-1.594-2.278l2.294-1.035l-0.467-1.484
	l-3.188,0.897l-0.894-2.278l2.721-0.276l-0.778-1.381l-2.994,0.449l-1.244-2.347l3.188-0.345l-0.661-1.139l-3.343,0.587
	l-1.244-1.381l3.071-1.484l-1.011-1.312l-2.527,0.897l0.233-2.347h2.41l-0.35-1.657l-2.372-0.104l-0.35-2.243h4.315
	c8.981,24.575,22.316,23.574,30.83,0L60.71,49.774z"/>
<path fill-rule="evenodd" clip-rule="evenodd" fill="none" stroke="#FFFFFF" stroke-width="0.4984" stroke-miterlimit="3.8637" d="
	M60.71,49.774l1.827,0.173l-0.078,2.52h-1.944l-0.194,1.381h2.177l-0.155,2.623l-2.41-0.069l-0.35,1.277l2.527,0.276l-0.933,2.692
	l-2.605-0.414l-0.467,1.622l2.955,0.207l-1.244,2.071l-2.527-0.173l-1.127,1.484l1.711,1.208l-2.41,2.002l-2.488-1.381l-1.944,1.898
	l0.467,1.484l-3.305,0.966l-0.933-1.588l-1.594,0.104v2.347H42.01l0.117-2.278l-2.294-0.173l-0.544,2.174l-4.004-1.622l1.711-1.76
	l-1.711-0.794l-2.527,2.105l-1.594-2.278l2.294-1.035l-0.467-1.484l-3.188,0.897l-0.894-2.278l2.721-0.276l-0.778-1.381
	l-2.994,0.449l-1.244-2.347l3.188-0.345l-0.661-1.139l-3.343,0.587l-1.244-1.381l3.071-1.484l-1.011-1.312l-2.527,0.897l0.233-2.347
	h2.41l-0.35-1.657l-2.372-0.104l-0.35-2.243h4.315c8.981,24.575,22.316,23.574,30.83,0L60.71,49.774z"/>
<path fill-rule="evenodd" clip-rule="evenodd" fill="#4A75AA" d="M61.565,32.655l1.983-0.207l-0.117-2.623h-2.138l-0.194-1.45h2.372
	l-0.155-2.796l-2.644,0.104l-0.389-1.381l2.76-0.276l-1.011-2.83l-2.877,0.449l-0.467-1.726l3.227-0.173l-1.361-2.209l-2.76,0.173
	l-1.244-1.553l1.866-1.277l-2.605-2.105l-2.76,1.45l-2.138-2.002l0.505-1.553l-3.616-1.001l-1.011,1.657l-1.749-0.104V8.736h-4.004
	l0.117,2.382l-2.488,0.207l-0.622-2.313l-4.393,1.76l1.905,1.829l-1.905,0.828l-2.76-2.209l-1.75,2.382l2.527,1.104l-0.505,1.553
	l-3.499-0.932l-1.011,2.382l2.994,0.276l-0.855,1.484l-3.266-0.483l-1.361,2.485l3.499,0.38l-0.739,1.174l-4.471-0.621l-0.544,1.45
	l3.382,1.553l-1.127,1.381l-2.76-0.932l0.233,2.485h2.644l-0.389,1.726l-2.605,0.104l-0.389,2.382h5.56
	c5.715-24.713,27.681-24.057,32.152,0L61.565,32.655z"/>
<path fill-rule="evenodd" clip-rule="evenodd" fill="none" stroke="#FFFFFF" stroke-width="0.4984" stroke-miterlimit="3.8637" d="
	M61.565,32.655l1.983-0.207l-0.117-2.623h-2.138l-0.194-1.45h2.372l-0.155-2.796l-2.644,0.104l-0.389-1.381l2.76-0.276l-1.011-2.83
	l-2.877,0.449l-0.467-1.726l3.227-0.173l-1.361-2.209l-2.76,0.173l-1.244-1.553l1.866-1.277l-2.605-2.105l-2.76,1.45l-2.138-2.002
	l0.505-1.553l-3.616-1.001l-1.011,1.657l-1.749-0.104V8.736h-4.004l0.117,2.382l-2.488,0.207l-0.622-2.313l-4.393,1.76l1.905,1.829
	l-1.905,0.828l-2.76-2.209l-1.75,2.382l2.527,1.104l-0.505,1.553l-3.499-0.932l-1.011,2.382l2.994,0.276l-0.855,1.484l-3.266-0.483
	l-1.361,2.485l3.499,0.38l-0.739,1.174l-4.471-0.621l-0.544,1.45l3.382,1.553l-1.127,1.381l-2.76-0.932l0.233,2.485h2.644
	l-0.389,1.726l-2.605,0.104l-0.389,2.382h5.56c5.715-24.713,27.681-24.057,32.152,0L61.565,32.655z"/>
<path fill-rule="evenodd" clip-rule="evenodd" fill="#4A75AA" d="M42.982,14.189c10.03,0,15.668,11.494,15.668,26.438
	c0,14.911-7.076,27.06-15.668,27.06c-8.592,0-13.724-12.149-15.59-27.06C25.526,25.683,32.951,14.189,42.982,14.189z"/>
<path fill-rule="evenodd" clip-rule="evenodd" fill="none" stroke="#FFFFFF" stroke-width="0.4984" stroke-miterlimit="3.8637" d="
	M42.982,14.189c10.03,0,15.668,11.494,15.668,26.438c0,14.911-7.076,27.06-15.668,27.06c-8.592,0-13.724-12.149-15.59-27.06
	C25.526,25.683,32.951,14.189,42.982,14.189z"/>
<polygon fill="#4A75AA" points="39.599,29.859 42.087,29.859 42.087,38.419 39.599,38.419 39.599,29.859 "/>
<polygon fill="none" stroke="#FFFFFF" stroke-width="0.4984" stroke-miterlimit="3.8637" points="39.599,29.859 42.087,29.859 
	42.087,38.419 39.599,38.419 39.599,29.859 "/>
<polygon fill="#4A75AA" points="46.325,29.859 48.852,29.859 48.852,38.419 46.325,38.419 46.325,29.859 "/>
<polygon fill="none" stroke="#FFFFFF" stroke-width="0.4984" stroke-miterlimit="3.8637" points="46.325,29.859 48.852,29.859 
	48.852,38.419 46.325,38.419 46.325,29.859 "/>
<path fill-rule="evenodd" clip-rule="evenodd" fill="#4A75AA" d="M52.312,43.596c2.216,0,4.004-0.897,4.004-2.002
	c0-1.07-1.788-1.967-4.004-1.967c-2.177,0-3.966,0.897-3.966,1.967C48.347,42.699,50.135,43.596,52.312,43.596z"/>
<path fill-rule="evenodd" clip-rule="evenodd" fill="none" stroke="#FFFFFF" stroke-width="0.4984" stroke-miterlimit="3.8637" d="
	M52.312,43.596c2.216,0,4.004-0.897,4.004-2.002c0-1.07-1.788-1.967-4.004-1.967c-2.177,0-3.966,0.897-3.966,1.967
	C48.347,42.699,50.135,43.596,52.312,43.596z"/>
<path fill-rule="evenodd" clip-rule="evenodd" fill="#4A75AA" d="M35.128,43.389c2.177,0,3.965-0.897,3.965-1.967
	c0-1.104-1.788-2.002-3.965-2.002c-2.216,0-4.004,0.897-4.004,2.002C31.124,42.492,32.912,43.389,35.128,43.389z"/>
<path fill-rule="evenodd" clip-rule="evenodd" fill="none" stroke="#FFFFFF" stroke-width="0.4984" stroke-miterlimit="3.8637" d="
	M35.128,43.389c2.177,0,3.965-0.897,3.965-1.967c0-1.104-1.788-2.002-3.965-2.002c-2.216,0-4.004,0.897-4.004,2.002
	C31.124,42.492,32.912,43.389,35.128,43.389z"/>
<path fill-rule="evenodd" clip-rule="evenodd" fill="#4A75AA" d="M42.476,48.079c-0.816-1.07-2.683-0.1-3.849-0.1
	c0.028,0.752-0.389,1.795,1.594,1.07l1.788,1.174c0.778,2.174,3.188,1.588,4.588,0.276c0.972-0.932,2.138-1.001,3.11-0.794
	l-0.233-1.208c-0.078-0.794-1.905-0.311-2.566-0.725C46.364,41.284,42.671,40.175,42.476,48.079z"/>
<path fill-rule="evenodd" clip-rule="evenodd" fill="none" stroke="#FFFFFF" stroke-width="0.4984" stroke-miterlimit="3.8637" d="
	M42.476,48.079c-0.816-1.07-2.683-0.1-3.849-0.1c0.028,0.752-0.389,1.795,1.594,1.07l1.788,1.174
	c0.778,2.174,3.188,1.588,4.588,0.276c0.972-0.932,2.138-1.001,3.11-0.794l-0.233-1.208c-0.078-0.794-1.905-0.311-2.566-0.725
	C46.364,41.284,42.671,40.175,42.476,48.079z"/>
<path fill-rule="evenodd" clip-rule="evenodd" fill="#4A75AA" d="M36.683,55.953c4.937,1.104,10.108,1.243,15.629,0
	C47.919,62.027,40.299,61.51,36.683,55.953z"/>
<path fill-rule="evenodd" clip-rule="evenodd" fill="none" stroke="#FFFFFF" stroke-width="0.4984" stroke-miterlimit="3.8637" d="
	M36.683,55.953c4.937,1.104,10.108,1.243,15.629,0C47.919,62.027,40.299,61.51,36.683,55.953z"/>
<path fill-rule="evenodd" clip-rule="evenodd" fill="#004B89" d="M35.128,41.94c0.583,0,1.05-0.242,1.05-0.518
	c0-0.311-0.467-0.518-1.05-0.518c-0.583,0-1.05,0.207-1.05,0.518C34.079,41.698,34.545,41.94,35.128,41.94z"/>
<path fill-rule="evenodd" clip-rule="evenodd" fill="none" stroke="#FFFFFF" stroke-width="0.4984" stroke-miterlimit="3.8637" d="
	M35.128,41.94c0.583,0,1.05-0.242,1.05-0.518c0-0.311-0.467-0.518-1.05-0.518c-0.583,0-1.05,0.207-1.05,0.518
	C34.079,41.698,34.545,41.94,35.128,41.94z"/>
<path fill-rule="evenodd" clip-rule="evenodd" fill="#004B89" d="M52.546,42.147c0.583,0,1.05-0.242,1.05-0.552
	c0-0.276-0.467-0.518-1.05-0.518c-0.583,0-1.05,0.242-1.05,0.518C51.496,41.905,51.962,42.147,52.546,42.147z"/>
<path fill-rule="evenodd" clip-rule="evenodd" fill="none" stroke="#FFFFFF" stroke-width="0.4984" stroke-miterlimit="3.8637" d="
	M52.546,42.147c0.583,0,1.05-0.242,1.05-0.552c0-0.276-0.467-0.518-1.05-0.518c-0.583,0-1.05,0.242-1.05,0.518
	C51.496,41.905,51.962,42.147,52.546,42.147z"/>
<path fill-rule="evenodd" clip-rule="evenodd" fill="#4A75AA" d="M28.404,47.133l-0.424-2.285l-0.49-2.971l-0.326-2.775
	l-0.083-1.304c-6.804-0.656-0.139,8.67,1.65,10.706L28.404,47.133z"/>
<path fill-rule="evenodd" clip-rule="evenodd" fill="none" stroke="#FFFFFF" stroke-width="0.4984" stroke-miterlimit="3.8637" d="
	M28.404,47.133l-0.424-2.285l-0.49-2.971l-0.326-2.775l-0.083-1.304c-6.804-0.656-0.139,8.67,1.65,10.706L28.404,47.133z"/>
<g>
	<defs>
		<path id="SVGID_1_" d="M59.466,37.211c6.765-0.69,0.233,8.491-1.516,10.493"/>
	</defs>
	<clipPath id="SVGID_2_">
		<use xlink:href="#SVGID_1_"  overflow="visible"/>
	</clipPath>
</g>
<path fill-rule="evenodd" clip-rule="evenodd" fill="#4A75AA" d="M58.373,44.945l0.261-3.722l-0.065-3.983
	c7.835-0.979,1.292,8.51-0.457,10.512L58.373,44.945z"/>
<path fill-rule="evenodd" clip-rule="evenodd" fill="none" stroke="#FFFFFF" stroke-width="0.4984" stroke-miterlimit="3.8637" d="
	M58.373,44.945l0.261-3.722l-0.065-3.983c7.835-0.979,1.292,8.51-0.457,10.512L58.373,44.945z"/>
<path fill-rule="evenodd" clip-rule="evenodd" fill="#1D1D1B" d="M192.185,71.372v-5.251c0-1.666-0.818-2.405-2.515-2.405
	c-1.336,0-2.657,0.582-2.688,2.091h1.195c0.11-0.896,0.645-1.195,1.525-1.195c1.494,0,1.415,1.195,1.415,2.311v0.157
	c-0.251,0.047-0.487,0.047-0.739,0.047c-1.383,0-3.569,0.613-3.569,2.327c0,1.273,0.723,2.091,2.012,2.091
	c0.833,0,1.886-0.377,2.295-1.163h0.031v0.99H192.185z M191.116,67.976c0,0.629-0.031,0.943-0.283,1.509
	c-0.315,0.676-0.991,1.163-1.745,1.163c-0.629,0-1.053-0.456-1.053-1.085c0-1.195,1.494-1.588,2.453-1.588H191.116z"/>
<path fill-rule="evenodd" clip-rule="evenodd" fill="#1D1D1B" d="M200.044,71.372v-5.345c0-1.179-0.597-2.311-1.918-2.311
	c-1.305,0-1.965,0.755-2.343,1.902h-0.031v-1.729h-1.069v7.483h1.069v-3.081c0-1.179,0.629-3.506,2.123-3.506
	c1.226,0,1.1,1.588,1.1,2.437v4.15H200.044z"/>
<path fill-rule="evenodd" clip-rule="evenodd" fill="#1D1D1B" d="M207.605,71.372V60.524h-1.069v4.591h-0.031
	c-0.314-0.912-0.991-1.399-1.965-1.399c-2.044,0-2.547,2.358-2.547,3.978c0,1.745,0.409,3.852,2.562,3.852
	c0.896,0,1.698-0.582,1.95-1.446h0.031v1.273H207.605z M206.536,67.662c0,1.038-0.424,2.987-1.761,2.987
	c-1.383,0-1.556-1.714-1.556-2.751c0-1.038,0.126-3.286,1.588-3.286C206.222,64.612,206.536,66.609,206.536,67.662z"/>
<path fill-rule="evenodd" clip-rule="evenodd" fill="#1D1D1B" d="M221.163,63.48c0-1.997-1.446-3.129-3.364-3.129
	c-3.16,0-4.088,2.688-4.088,5.392c0,2.704,0.912,5.801,4.166,5.801c1.116,0,1.871-0.204,2.877-0.645v-1.273
	c-0.739,0.581-1.635,0.896-2.578,0.896c-2.547,0-3.129-2.673-3.129-4.716c0-1.855,0.362-4.433,2.751-4.433
	c1.258,0,1.981,0.896,1.981,2.107H221.163z"/>
<path fill-rule="evenodd" clip-rule="evenodd" fill="#1D1D1B" d="M228.203,67.646c0-2.028-0.755-3.93-3.081-3.93
	c-2.311,0-3.05,1.918-3.05,3.93c0,2.012,0.739,3.899,3.05,3.899C227.448,71.545,228.203,69.674,228.203,67.646z M226.977,67.63
	c0,1.211-0.283,3.018-1.855,3.018c-1.556,0-1.824-1.824-1.824-3.018c0-1.195,0.267-3.018,1.824-3.018S226.977,66.42,226.977,67.63z"
	/>
<path fill-rule="evenodd" clip-rule="evenodd" fill="#1D1D1B" d="M239.298,71.372v-5.345c0-1.179-0.597-2.311-1.918-2.311
	c-1.053,0-1.808,0.755-2.122,1.714h-0.032c-0.078-1.116-0.77-1.714-1.886-1.714c-1.226,0-1.792,0.833-2.091,1.902h-0.031v-1.729
	h-1.069v7.483h1.069v-3.081c0-1.037,0.503-3.506,1.871-3.506c1.226,0,1.1,1.588,1.1,2.437v4.15h1.069v-3.081
	c0-1.037,0.487-3.506,1.871-3.506c1.226,0,1.101,1.588,1.101,2.437v4.15H239.298z"/>
<path fill-rule="evenodd" clip-rule="evenodd" fill="#1D1D1B" d="M250.944,71.372v-5.345c0-1.179-0.597-2.311-1.918-2.311
	c-1.053,0-1.808,0.755-2.122,1.714h-0.032c-0.078-1.116-0.77-1.714-1.886-1.714c-1.226,0-1.792,0.833-2.091,1.902h-0.031v-1.729
	h-1.069v7.483h1.069v-3.081c0-1.037,0.503-3.506,1.871-3.506c1.226,0,1.1,1.588,1.1,2.437v4.15h1.069v-3.081
	c0-1.037,0.487-3.506,1.871-3.506c1.226,0,1.101,1.588,1.101,2.437v4.15H250.944z"/>
<path fill-rule="evenodd" clip-rule="evenodd" fill="#1D1D1B" d="M258.486,66.923v-0.362c0-1.651-0.865-2.846-2.61-2.846
	c-2.201,0-2.924,1.714-2.924,3.663c0,2.421,1.053,4.166,3.647,4.166c0.582,0,1.163-0.047,1.714-0.22v-0.88
	c-0.503,0.126-0.959,0.204-1.478,0.204c-1.839,0-2.657-1.651-2.657-3.286v-0.44H258.486z M257.26,66.027h-3.003
	c0.157-0.818,0.692-1.415,1.572-1.415C256.647,64.612,257.26,65.209,257.26,66.027z"/>
<path fill-rule="evenodd" clip-rule="evenodd" fill="#1D1D1B" d="M264.03,64.863v-1.148c-1.195,0-2.028,0.535-2.5,1.619h-0.031
	v-1.446h-1.069v7.483h1.069v-3.097C261.499,66.64,262.096,64.863,264.03,64.863z"/>
<path fill-rule="evenodd" clip-rule="evenodd" fill="#1D1D1B" d="M270.455,66.168c0-1.619-0.975-2.453-2.562-2.453
	c-2.295,0-3.05,1.698-3.05,3.742c0,2.5,1.273,4.087,3.852,4.087c0.55,0,1.038-0.047,1.556-0.204v-0.849
	c-0.393,0.126-0.802,0.157-1.21,0.157c-2.123,0-2.971-1.494-2.971-3.427c0-1.116,0.409-2.61,1.777-2.61
	c0.959,0,1.336,0.692,1.336,1.556H270.455z"/>
<path fill-rule="evenodd" clip-rule="evenodd" fill="#1D1D1B" d="M277.102,66.923v-0.362c0-1.651-0.865-2.846-2.61-2.846
	c-2.201,0-2.924,1.714-2.924,3.663c0,2.421,1.053,4.166,3.647,4.166c0.582,0,1.163-0.047,1.714-0.22v-0.88
	c-0.503,0.126-0.959,0.204-1.478,0.204c-1.839,0-2.657-1.651-2.657-3.286v-0.44H277.102z M275.876,66.027h-3.003
	c0.157-0.818,0.692-1.415,1.572-1.415C275.263,64.612,275.876,65.209,275.876,66.027z"/>
<path fill-rule="evenodd" clip-rule="evenodd" fill="#1D1D1B" d="M284.448,61.939v-1.415h-1.415v1.415H284.448z M284.275,71.372
	v-7.483h-1.069v7.483H284.275z"/>
<path fill-rule="evenodd" clip-rule="evenodd" fill="#1D1D1B" d="M292.258,71.372v-5.345c0-1.179-0.598-2.311-1.918-2.311
	c-1.305,0-1.965,0.755-2.343,1.902h-0.031v-1.729h-1.069v7.483h1.069v-3.081c0-1.179,0.629-3.506,2.123-3.506
	c1.226,0,1.1,1.588,1.1,2.437v4.15H292.258z"/>
<polygon fill-rule="evenodd" clip-rule="evenodd" fill="#1D1D1B" points="306.134,71.372 306.134,60.524 304.97,60.524 
	304.97,69.69 304.939,69.69 300.474,60.524 298.902,60.524 298.902,71.372 300.065,71.372 300.065,62.238 300.097,62.238 
	304.562,71.372 "/>
<path fill-rule="evenodd" clip-rule="evenodd" fill="#1D1D1B" d="M310.059,61.939v-1.415h-1.415v1.415H310.059z M309.887,71.372
	v-7.483h-1.069v7.483H309.887z"/>
<path fill-rule="evenodd" clip-rule="evenodd" fill="#1D1D1B" d="M317.571,71.388v-7.499h-1.069v1.226h-0.031
	c-0.236-0.88-1.069-1.399-1.95-1.399c-2.044,0-2.562,2.343-2.562,3.962c0,1.682,0.472,3.695,2.531,3.695
	c0.928,0,1.698-0.534,1.981-1.431h0.031v1.321c0,1.604-0.534,2.484-2.264,2.484c-0.66,0-1.274-0.157-1.871-0.44v1.085
	c0.692,0.142,1.305,0.251,2.028,0.251C316.549,74.642,317.571,73.51,317.571,71.388z M316.502,67.489
	c0,1.069-0.424,2.987-1.792,2.987c-1.336,0-1.525-1.792-1.525-2.782c0-0.975,0.189-3.081,1.556-3.081
	C316.078,64.612,316.502,66.451,316.502,67.489z"/>
<path fill-rule="evenodd" clip-rule="evenodd" fill="#1D1D1B" d="M325.097,66.923v-0.362c0-1.651-0.865-2.846-2.61-2.846
	c-2.201,0-2.924,1.714-2.924,3.663c0,2.421,1.053,4.166,3.647,4.166c0.582,0,1.163-0.047,1.714-0.22v-0.88
	c-0.503,0.126-0.959,0.204-1.478,0.204c-1.839,0-2.657-1.651-2.657-3.286v-0.44H325.097z M323.871,66.027h-3.003
	c0.157-0.818,0.692-1.415,1.572-1.415C323.258,64.612,323.871,65.209,323.871,66.027z"/>
<path fill-rule="evenodd" clip-rule="evenodd" fill="#1D1D1B" d="M330.641,64.863v-1.148c-1.195,0-2.028,0.535-2.5,1.619h-0.031
	v-1.446h-1.069v7.483h1.069v-3.097C328.11,66.64,328.707,64.863,330.641,64.863z"/>
<path fill-rule="evenodd" clip-rule="evenodd" fill="#1D1D1B" d="M333.325,61.939v-1.415h-1.415v1.415H333.325z M333.152,71.372
	v-7.483h-1.069v7.483H333.152z"/>
<path fill-rule="evenodd" clip-rule="evenodd" fill="#1D1D1B" d="M340.553,71.372v-5.251c0-1.666-0.818-2.405-2.516-2.405
	c-1.336,0-2.657,0.582-2.688,2.091h1.195c0.11-0.896,0.645-1.195,1.525-1.195c1.494,0,1.415,1.195,1.415,2.311v0.157
	c-0.251,0.047-0.487,0.047-0.739,0.047c-1.383,0-3.569,0.613-3.569,2.327c0,1.273,0.723,2.091,2.012,2.091
	c0.833,0,1.886-0.377,2.295-1.163h0.031v0.99H340.553z M339.484,67.976c0,0.629-0.031,0.943-0.283,1.509
	c-0.314,0.676-0.991,1.163-1.745,1.163c-0.629,0-1.053-0.456-1.053-1.085c0-1.195,1.494-1.588,2.453-1.588H339.484z"/>
<path fill-rule="evenodd" clip-rule="evenodd" fill="#1D1D1B" d="M194.37,50.195c0-3.129-0.959-5.392-4.449-5.392h-2.437v10.848
	h2.044c0.755,0,1.541-0.047,2.264-0.299C193.993,54.597,194.37,52.255,194.37,50.195z M193.034,50.211
	c0,1.43-0.141,3.427-1.651,4.119c-0.566,0.252-1.226,0.299-1.839,0.299h-0.833v-8.804h0.692c0.597,0,1.226,0.031,1.777,0.236
	C192.877,46.658,193.034,48.686,193.034,50.211z"/>
<path fill-rule="evenodd" clip-rule="evenodd" fill="#1D1D1B" d="M201.459,51.202V50.84c0-1.651-0.865-2.846-2.61-2.846
	c-2.201,0-2.924,1.714-2.924,3.663c0,2.421,1.053,4.166,3.647,4.166c0.582,0,1.163-0.047,1.714-0.22v-0.88
	c-0.503,0.126-0.959,0.204-1.478,0.204c-1.839,0-2.657-1.651-2.657-3.286v-0.44H201.459z M200.233,50.306h-3.003
	c0.157-0.818,0.692-1.415,1.572-1.415C199.62,48.891,200.233,49.488,200.233,50.306z"/>
<rect x="203.497" y="44.803" fill-rule="evenodd" clip-rule="evenodd" fill="#1D1D1B" width="1.069" height="10.848"/>
<path fill-rule="evenodd" clip-rule="evenodd" fill="#1D1D1B" d="M212.219,51.202V50.84c0-1.651-0.865-2.846-2.61-2.846
	c-2.201,0-2.924,1.714-2.924,3.663c0,2.421,1.053,4.166,3.647,4.166c0.582,0,1.163-0.047,1.714-0.22v-0.88
	c-0.503,0.126-0.959,0.204-1.478,0.204c-1.839,0-2.657-1.651-2.657-3.286v-0.44H212.219z M210.993,50.306h-3.003
	c0.157-0.818,0.692-1.415,1.572-1.415C210.38,48.891,210.993,49.488,210.993,50.306z"/>
<path fill-rule="evenodd" clip-rule="evenodd" fill="#1D1D1B" d="M219.225,55.667v-7.499h-1.069v1.226h-0.031
	c-0.236-0.88-1.069-1.399-1.95-1.399c-2.044,0-2.562,2.343-2.562,3.962c0,1.682,0.472,3.694,2.531,3.694
	c0.928,0,1.698-0.534,1.981-1.431h0.031v1.321c0,1.604-0.534,2.484-2.264,2.484c-0.66,0-1.274-0.157-1.871-0.44v1.085
	c0.692,0.142,1.305,0.251,2.028,0.251C218.203,58.921,219.225,57.789,219.225,55.667z M218.156,51.768
	c0,1.069-0.424,2.987-1.792,2.987c-1.336,0-1.525-1.792-1.525-2.782c0-0.975,0.188-3.081,1.556-3.081
	C217.731,48.891,218.156,50.73,218.156,51.768z"/>
<path fill-rule="evenodd" clip-rule="evenodd" fill="#1D1D1B" d="M226.499,55.651V50.4c0-1.666-0.818-2.405-2.515-2.405
	c-1.336,0-2.657,0.582-2.688,2.091h1.195c0.11-0.896,0.645-1.195,1.525-1.195c1.494,0,1.415,1.195,1.415,2.311v0.157
	c-0.251,0.047-0.487,0.047-0.739,0.047c-1.383,0-3.569,0.613-3.569,2.327c0,1.273,0.723,2.091,2.012,2.091
	c0.833,0,1.886-0.377,2.295-1.163h0.031v0.99H226.499z M225.43,52.255c0,0.629-0.031,0.943-0.283,1.509
	c-0.314,0.676-0.991,1.163-1.745,1.163c-0.629,0-1.053-0.456-1.053-1.085c0-1.195,1.494-1.588,2.453-1.588H225.43z"/>
<path fill-rule="evenodd" clip-rule="evenodd" fill="#1D1D1B" d="M232.597,49.063v-0.896h-2.012v-2.421l-1.069,0.676v1.745h-1.226
	v0.896h1.226v4.827c0,1.446,0.676,1.934,2.075,1.934c0.314,0,0.629-0.031,0.943-0.079v-0.959c-0.267,0.094-0.424,0.141-0.723,0.141
	c-0.849,0-1.226-0.456-1.226-1.258v-4.606H232.597z"/>
<path fill-rule="evenodd" clip-rule="evenodd" fill="#1D1D1B" d="M235.562,46.218v-1.415h-1.415v1.415H235.562z M235.389,55.651
	v-7.483h-1.069v7.483H235.389z"/>
<path fill-rule="evenodd" clip-rule="evenodd" fill="#1D1D1B" d="M243.608,51.925c0-2.028-0.755-3.93-3.081-3.93
	c-2.311,0-3.05,1.918-3.05,3.93c0,2.012,0.739,3.899,3.05,3.899C242.853,55.824,243.608,53.953,243.608,51.925z M242.381,51.909
	c0,1.211-0.283,3.018-1.855,3.018c-1.556,0-1.824-1.824-1.824-3.018c0-1.195,0.268-3.018,1.824-3.018
	C242.083,48.891,242.381,50.699,242.381,51.909z"/>
<path fill-rule="evenodd" clip-rule="evenodd" fill="#1D1D1B" d="M250.929,55.651v-5.345c0-1.179-0.597-2.311-1.918-2.311
	c-1.305,0-1.965,0.755-2.343,1.902h-0.031v-1.729h-1.069v7.483h1.069v-3.081c0-1.179,0.629-3.506,2.123-3.506
	c1.226,0,1.1,1.588,1.1,2.437v4.15H250.929z"/>
<path fill-rule="evenodd" clip-rule="evenodd" fill="#1D1D1B" d="M263.092,51.925c0-2.028-0.755-3.93-3.081-3.93
	c-2.311,0-3.05,1.918-3.05,3.93c0,2.012,0.739,3.899,3.05,3.899C262.337,55.824,263.092,53.953,263.092,51.925z M261.866,51.909
	c0,1.211-0.283,3.018-1.855,3.018c-1.556,0-1.824-1.824-1.824-3.018c0-1.195,0.268-3.018,1.824-3.018
	C261.567,48.891,261.866,50.699,261.866,51.909z"/>
<path fill-rule="evenodd" clip-rule="evenodd" fill="#1D1D1B" d="M269.219,45.856v-0.959c-0.425-0.094-0.849-0.141-1.273-0.141
	c-1.557,0-2.453,0.817-2.453,2.374v1.038h-1.258v0.896h1.258v6.587h1.069v-6.587h2.154v-0.896h-2.154
	c0-1.289-0.126-2.515,1.572-2.515C268.511,45.652,268.857,45.731,269.219,45.856z"/>
<path fill-rule="evenodd" clip-rule="evenodd" fill="#1D1D1B" d="M281.141,47.759c0-2.028-1.588-3.129-3.49-3.129
	c-3.05,0-4.04,2.594-4.04,5.235c0,2.956,0.802,5.958,4.339,5.958c1.006,0,2.343-0.362,3.129-1.038v-5.267h-3.71v1.022h2.484v3.663
	c-0.472,0.424-1.383,0.597-1.997,0.597c-2.594,0-2.908-2.956-2.908-4.936c0-1.808,0.44-4.213,2.72-4.213
	c1.289,0,2.091,0.833,2.091,2.107H281.141z"/>
<path fill-rule="evenodd" clip-rule="evenodd" fill="#1D1D1B" d="M288.414,51.202V50.84c0-1.651-0.865-2.846-2.61-2.846
	c-2.201,0-2.924,1.714-2.924,3.663c0,2.421,1.053,4.166,3.647,4.166c0.582,0,1.163-0.047,1.714-0.22v-0.88
	c-0.503,0.126-0.959,0.204-1.478,0.204c-1.839,0-2.657-1.651-2.657-3.286v-0.44H288.414z M287.188,50.306h-3.003
	c0.157-0.818,0.692-1.415,1.572-1.415C286.574,48.891,287.188,49.488,287.188,50.306z"/>
<path fill-rule="evenodd" clip-rule="evenodd" fill="#1D1D1B" d="M293.957,49.142v-1.148c-1.195,0-2.028,0.535-2.5,1.619h-0.031
	v-1.446h-1.069v7.483h1.069v-3.097C291.426,50.919,292.024,49.142,293.957,49.142z"/>
<path fill-rule="evenodd" clip-rule="evenodd" fill="#1D1D1B" d="M304.439,55.651v-5.345c0-1.179-0.597-2.311-1.918-2.311
	c-1.053,0-1.808,0.755-2.122,1.714h-0.032c-0.078-1.116-0.77-1.714-1.886-1.714c-1.226,0-1.792,0.833-2.091,1.902h-0.031v-1.729
	h-1.069v7.483h1.069v-3.081c0-1.037,0.503-3.506,1.871-3.506c1.226,0,1.1,1.588,1.1,2.437v4.15h1.069v-3.081
	c0-1.037,0.487-3.506,1.871-3.506c1.226,0,1.101,1.588,1.101,2.437v4.15H304.439z"/>
<path fill-rule="evenodd" clip-rule="evenodd" fill="#1D1D1B" d="M311.73,55.651V50.4c0-1.666-0.818-2.405-2.516-2.405
	c-1.336,0-2.657,0.582-2.688,2.091h1.195c0.11-0.896,0.645-1.195,1.525-1.195c1.493,0,1.415,1.195,1.415,2.311v0.157
	c-0.251,0.047-0.487,0.047-0.739,0.047c-1.383,0-3.569,0.613-3.569,2.327c0,1.273,0.723,2.091,2.012,2.091
	c0.833,0,1.886-0.377,2.295-1.163h0.031v0.99H311.73z M310.661,52.255c0,0.629-0.031,0.943-0.283,1.509
	c-0.314,0.676-0.991,1.163-1.745,1.163c-0.629,0-1.053-0.456-1.053-1.085c0-1.195,1.493-1.588,2.453-1.588H310.661z"/>
<path fill-rule="evenodd" clip-rule="evenodd" fill="#1D1D1B" d="M319.589,55.651v-5.345c0-1.179-0.598-2.311-1.918-2.311
	c-1.305,0-1.965,0.755-2.342,1.902h-0.031v-1.729h-1.069v7.483h1.069v-3.081c0-1.179,0.629-3.506,2.123-3.506
	c1.226,0,1.1,1.588,1.1,2.437v4.15H319.589z"/>
<rect x="326.311" y="44.803" fill-rule="evenodd" clip-rule="evenodd" fill="#1D1D1B" width="1.226" height="10.848"/>
<path fill-rule="evenodd" clip-rule="evenodd" fill="#1D1D1B" d="M335.581,55.651v-5.345c0-1.179-0.598-2.311-1.918-2.311
	c-1.305,0-1.965,0.755-2.342,1.902h-0.031v-1.729h-1.069v7.483h1.069v-3.081c0-1.179,0.629-3.506,2.123-3.506
	c1.226,0,1.1,1.588,1.1,2.437v4.15H335.581z"/>
<path fill-rule="evenodd" clip-rule="evenodd" fill="#1D1D1B" d="M343.143,55.651V44.803h-1.069v4.591h-0.031
	c-0.314-0.912-0.991-1.399-1.965-1.399c-2.044,0-2.547,2.358-2.547,3.978c0,1.745,0.409,3.852,2.562,3.852
	c0.896,0,1.698-0.582,1.95-1.446h0.031v1.273H343.143z M342.074,51.941c0,1.038-0.424,2.987-1.761,2.987
	c-1.383,0-1.556-1.714-1.556-2.751c0-1.038,0.126-3.286,1.588-3.286C341.759,48.891,342.074,50.887,342.074,51.941z"/>
<path fill-rule="evenodd" clip-rule="evenodd" fill="#1D1D1B" d="M350.921,55.651v-7.483h-1.069v3.081
	c0,1.179-0.613,3.506-2.107,3.506c-1.226,0-1.101-1.588-1.101-2.437v-4.15h-1.069v5.345c0,1.195,0.597,2.311,1.918,2.311
	c1.289,0,1.981-0.755,2.327-1.902h0.032v1.729H350.921z"/>
<path fill-rule="evenodd" clip-rule="evenodd" fill="#1D1D1B" d="M357.649,53.56c0-1.226-0.833-1.588-1.745-2.138l-0.629-0.377
	c-0.44-0.267-1.352-0.55-1.352-1.179c0-0.723,0.928-0.975,1.509-0.975c0.566,0,1.21,0.141,1.745,0.346v-0.99
	c-0.582-0.142-1.148-0.252-1.761-0.252c-1.289,0-2.562,0.503-2.562,1.981c0,1.148,0.818,1.556,1.698,2.028l0.676,0.362
	c0.55,0.299,1.352,0.613,1.352,1.352c0,0.991-1.022,1.21-1.824,1.21c-0.66,0-1.305-0.173-1.934-0.393v0.975
	c0.66,0.204,1.352,0.315,2.044,0.315C356.36,55.824,357.649,55.242,357.649,53.56z"/>
<path fill-rule="evenodd" clip-rule="evenodd" fill="#1D1D1B" d="M362.911,49.063v-0.896h-2.012v-2.421l-1.069,0.676v1.745h-1.226
	v0.896h1.226v4.827c0,1.446,0.676,1.934,2.075,1.934c0.315,0,0.629-0.031,0.943-0.079v-0.959c-0.267,0.094-0.424,0.141-0.723,0.141
	c-0.849,0-1.226-0.456-1.226-1.258v-4.606H362.911z"/>
<path fill-rule="evenodd" clip-rule="evenodd" fill="#1D1D1B" d="M368.139,49.142v-1.148c-1.195,0-2.028,0.535-2.5,1.619h-0.031
	v-1.446h-1.069v7.483h1.069v-3.097C365.608,50.919,366.205,49.142,368.139,49.142z"/>
<polygon fill-rule="evenodd" clip-rule="evenodd" fill="#1D1D1B" points="374.848,48.168 373.7,48.168 371.688,54.047 
	371.656,54.047 369.471,48.168 368.323,48.168 371.185,55.651 370.131,58.685 371.232,58.685 "/>
<polygon fill-rule="evenodd" clip-rule="evenodd" fill="#1D1D1B" points="200.061,29.082 198.379,29.082 196.854,37.241 
	196.823,37.241 194.025,29.082 192.547,29.082 189.78,37.241 189.748,37.241 188.192,29.082 186.51,29.082 188.601,39.929 
	190.519,39.929 193.27,31.912 193.301,31.912 196.1,39.929 198.018,39.929 "/>
<path fill-rule="evenodd" clip-rule="evenodd" fill="#1D1D1B" d="M203.312,30.811v-1.729h-1.745v1.729H203.312z M203.312,39.929
	v-7.483h-1.745v7.483H203.312z"/>
<path fill-rule="evenodd" clip-rule="evenodd" fill="#1D1D1B" d="M209.721,34.097v-1.824c-1.258,0-1.839,0.519-2.421,1.556h-0.031
	v-1.383h-1.745v7.483h1.745v-3.286C207.268,34.883,207.928,34.097,209.721,34.097z"/>
<path fill-rule="evenodd" clip-rule="evenodd" fill="#1D1D1B" d="M215.735,33.657v-1.21h-2.217v-2.83l-1.745,1.053v1.777h-1.462
	v1.21h1.462v4.386c0,1.556,0.77,2.059,2.295,2.059c0.472,0,0.959-0.047,1.431-0.126V38.75c-0.268,0.063-0.535,0.126-0.802,0.126
	c-1.085,0-1.179-0.802-1.179-1.682v-3.537H215.735z"/>
<path fill-rule="evenodd" clip-rule="evenodd" fill="#1D1D1B" d="M221.216,37.854c0-2.138-3.286-2.641-3.286-3.632
	c0-0.503,0.77-0.692,1.163-0.692c0.597,0,1.148,0.236,1.666,0.503v-1.478c-0.566-0.157-1.116-0.283-1.698-0.283
	c-1.399,0-2.688,0.645-2.688,2.201c0,1.981,3.223,2.72,3.223,3.6c0,0.597-0.849,0.676-1.289,0.676c-0.66,0-1.305-0.189-1.902-0.456
	v1.509c0.645,0.204,1.305,0.299,1.981,0.299C219.849,40.103,221.216,39.521,221.216,37.854z"/>
<path fill-rule="evenodd" clip-rule="evenodd" fill="#1D1D1B" d="M228.49,35.009c0-1.839-1.022-2.736-2.846-2.736
	c-2.248,0-3.427,1.415-3.427,3.584c0,2.61,1.336,4.245,4.009,4.245c0.739,0,1.478-0.126,2.185-0.346v-1.069
	c-0.409,0.141-0.833,0.189-1.258,0.189c-1.981,0-3.081-1.446-3.081-3.333c0-0.896,0.33-2.044,1.43-2.044
	c0.912,0,1.132,0.739,1.132,1.509H228.49z"/>
<path fill-rule="evenodd" clip-rule="evenodd" fill="#1D1D1B" d="M235.7,39.929v-5.188c0-1.289-0.597-2.468-2.028-2.468
	c-1.069,0-1.824,0.613-2.217,1.572h-0.032v-4.764h-1.745v10.848h1.745v-3.239c0-1.006,0.503-2.783,1.761-2.783
	c0.173,0,0.377,0.016,0.503,0.142c0.299,0.283,0.267,1.242,0.267,1.603v4.276H235.7z"/>
<path fill-rule="evenodd" clip-rule="evenodd" fill="#1D1D1B" d="M243.304,39.929V34.6c0-1.729-1.132-2.327-2.72-2.327
	c-1.556,0-2.845,0.66-2.845,2.374h1.698c0-0.739,0.393-1.148,1.148-1.148c0.865,0,1.053,0.629,1.053,1.368v0.739
	c-1.698,0.047-4.182,0.283-4.182,2.531c0,1.273,1.006,1.965,2.201,1.965c0.818,0,1.572-0.267,1.95-1.038h0.031v0.865H243.304z
	 M241.638,36.628c0,0.959-0.393,2.248-1.556,2.248c-0.582,0-0.928-0.299-0.928-0.896C239.154,36.848,240.805,36.628,241.638,36.628z
	"/>
<path fill-rule="evenodd" clip-rule="evenodd" fill="#1D1D1B" d="M250.83,30.402v-1.336c-0.566-0.126-1.179-0.157-1.745-0.157
	c-1.682,0-3.066,0.645-3.066,2.515v1.022h-1.368v1.21h1.368v6.273h1.745v-6.273h2.201v-1.21h-2.201v-0.519
	c0-1.148,0.487-1.792,1.698-1.792C249.919,30.135,250.406,30.245,250.83,30.402z"/>
<path fill-rule="evenodd" clip-rule="evenodd" fill="#1D1D1B" d="M255.856,33.657v-1.21h-2.217v-2.83l-1.745,1.053v1.777h-1.462
	v1.21h1.462v4.386c0,1.556,0.77,2.059,2.295,2.059c0.472,0,0.959-0.047,1.431-0.126V38.75c-0.267,0.063-0.535,0.126-0.802,0.126
	c-1.085,0-1.179-0.802-1.179-1.682v-3.537H255.856z"/>
<path fill-rule="evenodd" clip-rule="evenodd" fill="#1D1D1B" d="M263.488,30.811v-1.729h-1.745v1.729H263.488z M263.488,39.929
	v-7.483h-1.745v7.483H263.488z"/>
<path fill-rule="evenodd" clip-rule="evenodd" fill="#1D1D1B" d="M271.751,39.929v-5.188c0-1.289-0.597-2.468-2.028-2.468
	c-1.069,0-1.824,0.613-2.217,1.572h-0.032v-1.399h-1.745v7.483h1.745v-3.239c0-1.006,0.503-2.783,1.761-2.783
	c0.173,0,0.377,0.016,0.503,0.142c0.299,0.283,0.267,1.242,0.267,1.603v4.276H271.751z"/>
<polygon fill-rule="evenodd" clip-rule="evenodd" fill="#1D1D1B" points="286.772,39.929 286.772,29.082 285.09,29.082 
	285.09,37.068 285.058,37.068 280.876,29.082 278.613,29.082 278.613,39.929 280.295,39.929 280.295,31.55 280.326,31.55 
	284.712,39.929 "/>
<path fill-rule="evenodd" clip-rule="evenodd" fill="#1D1D1B" d="M290.841,30.811v-1.729h-1.745v1.729H290.841z M290.841,39.929
	v-7.483h-1.745v7.483H290.841z"/>
<path fill-rule="evenodd" clip-rule="evenodd" fill="#1D1D1B" d="M298.822,40.448v-8.002h-1.667v0.896h-0.031
	c-0.487-0.739-1.022-1.069-1.934-1.069c-1.981,0-2.563,2.122-2.563,3.742c0,1.713,0.425,3.914,2.563,3.914
	c0.849,0,1.509-0.456,1.934-1.163h0.031v1.163c0,1.336-0.456,2.185-1.934,2.185c-0.849,0-1.588-0.252-2.311-0.66v1.714
	c0.77,0.189,1.541,0.299,2.343,0.299C297.344,43.467,298.822,42.759,298.822,40.448z M297.155,36.015
	c0,0.817-0.283,2.562-1.383,2.562c-1.211,0-1.289-1.682-1.289-2.562c0-0.865,0.11-2.39,1.289-2.39
	C296.904,33.625,297.155,35.15,297.155,36.015z"/>
<path fill-rule="evenodd" clip-rule="evenodd" fill="#1D1D1B" d="M306.541,35.732v-0.425c0-1.824-0.943-3.034-2.846-3.034
	c-2.232,0-3.207,1.399-3.207,3.522c0,2.468,1.116,4.308,3.773,4.308c0.707,0,1.415-0.079,2.091-0.299v-1.211
	c-0.44,0.157-0.959,0.283-1.43,0.283c-1.698,0-2.814-1.556-2.814-3.144H306.541z M304.89,34.679h-2.736
	c0.079-0.755,0.66-1.289,1.415-1.289C304.371,33.389,304.89,33.877,304.89,34.679z"/>
<path fill-rule="evenodd" clip-rule="evenodd" fill="#1D1D1B" d="M312.387,34.097v-1.824c-1.258,0-1.839,0.519-2.421,1.556h-0.031
	v-1.383h-1.745v7.483h1.745v-3.286C309.934,34.883,310.595,34.097,312.387,34.097z"/>
<path fill-rule="evenodd" clip-rule="evenodd" fill="#1D1D1B" d="M315.571,30.811v-1.729h-1.745v1.729H315.571z M315.571,39.929
	v-7.483h-1.745v7.483H315.571z"/>
<path fill-rule="evenodd" clip-rule="evenodd" fill="#1D1D1B" d="M323.285,39.929V34.6c0-1.729-1.132-2.327-2.72-2.327
	c-1.556,0-2.846,0.66-2.846,2.374h1.698c0-0.739,0.393-1.148,1.148-1.148c0.865,0,1.053,0.629,1.053,1.368v0.739
	c-1.698,0.047-4.182,0.283-4.182,2.531c0,1.273,1.006,1.965,2.201,1.965c0.818,0,1.572-0.267,1.95-1.038h0.031v0.865H323.285z
	 M321.618,36.628c0,0.959-0.393,2.248-1.556,2.248c-0.582,0-0.928-0.299-0.928-0.896C319.134,36.848,320.785,36.628,321.618,36.628z
	"/>
<path fill-rule="evenodd" clip-rule="evenodd" fill="#1D1D1B" d="M194.779,18.761c0-3.544-0.991-5.4-4.763-5.4h-2.688v10.864h2.688
	c0.707,0,1.431-0.032,2.107-0.252C194.386,23.249,194.779,20.856,194.779,18.761z M192.751,18.761c0,1.181-0.047,3.119-1.195,3.827
	c-0.456,0.268-1.022,0.331-1.541,0.331h-0.849v-8.254h0.849C192.594,14.665,192.751,16.681,192.751,18.761z"/>
<path fill-rule="evenodd" clip-rule="evenodd" fill="#1D1D1B" d="M202.146,20.011v-0.425c0-1.824-0.943-3.034-2.846-3.034
	c-2.232,0-3.207,1.399-3.207,3.522c0,2.468,1.116,4.308,3.773,4.308c0.707,0,1.415-0.079,2.091-0.299v-1.211
	c-0.44,0.157-0.959,0.283-1.43,0.283c-1.698,0-2.814-1.556-2.814-3.144H202.146z M200.496,18.957h-2.736
	c0.079-0.755,0.66-1.289,1.415-1.289C199.977,17.668,200.496,18.156,200.496,18.957z"/>
<rect x="203.905" y="13.361" fill-rule="evenodd" clip-rule="evenodd" fill="#1D1D1B" width="1.745" height="10.848"/>
<path fill-rule="evenodd" clip-rule="evenodd" fill="#1D1D1B" d="M213.489,20.011v-0.425c0-1.824-0.943-3.034-2.846-3.034
	c-2.232,0-3.207,1.399-3.207,3.522c0,2.468,1.116,4.308,3.773,4.308c0.707,0,1.415-0.079,2.091-0.299v-1.211
	c-0.44,0.157-0.959,0.283-1.43,0.283c-1.698,0-2.814-1.556-2.814-3.144H213.489z M211.839,18.957h-2.736
	c0.079-0.755,0.66-1.289,1.415-1.289C211.32,17.668,211.839,18.156,211.839,18.957z"/>
<path fill-rule="evenodd" clip-rule="evenodd" fill="#1D1D1B" d="M220.908,24.727v-8.002h-1.667v0.896h-0.031
	c-0.487-0.739-1.022-1.069-1.934-1.069c-1.981,0-2.563,2.122-2.563,3.742c0,1.713,0.425,3.914,2.563,3.914
	c0.849,0,1.509-0.456,1.934-1.163h0.031v1.163c0,1.336-0.456,2.185-1.934,2.185c-0.849,0-1.588-0.252-2.311-0.66v1.714
	c0.77,0.189,1.541,0.299,2.342,0.299C219.43,27.746,220.908,27.038,220.908,24.727z M219.241,20.294
	c0,0.817-0.283,2.562-1.383,2.562c-1.211,0-1.289-1.682-1.289-2.562c0-0.865,0.11-2.39,1.289-2.39
	C218.99,17.904,219.241,19.429,219.241,20.294z"/>
<path fill-rule="evenodd" clip-rule="evenodd" fill="#1D1D1B" d="M228.501,24.208v-5.33c0-1.729-1.132-2.327-2.72-2.327
	c-1.556,0-2.846,0.66-2.846,2.374h1.698c0-0.739,0.393-1.148,1.148-1.148c0.865,0,1.053,0.629,1.053,1.368v0.739
	c-1.698,0.047-4.182,0.283-4.182,2.531c0,1.273,1.006,1.965,2.201,1.965c0.818,0,1.572-0.267,1.95-1.038h0.031v0.865H228.501z
	 M226.834,20.907c0,0.959-0.393,2.248-1.556,2.248c-0.582,0-0.928-0.299-0.928-0.896C224.35,21.127,226.001,20.907,226.834,20.907z"
	/>
<path fill-rule="evenodd" clip-rule="evenodd" fill="#1D1D1B" d="M235.241,17.935v-1.21h-2.217v-2.83l-1.745,1.053v1.777h-1.462
	v1.21h1.462v4.386c0,1.556,0.77,2.059,2.295,2.059c0.472,0,0.959-0.047,1.431-0.126v-1.226c-0.268,0.063-0.535,0.126-0.802,0.126
	c-1.085,0-1.179-0.802-1.179-1.682v-3.537H235.241z"/>
<path fill-rule="evenodd" clip-rule="evenodd" fill="#1D1D1B" d="M238.223,15.09v-1.729h-1.745v1.729H238.223z M238.223,24.208
	v-7.483h-1.745v7.483H238.223z"/>
<path fill-rule="evenodd" clip-rule="evenodd" fill="#1D1D1B" d="M246.613,20.466c0-2.17-0.928-3.915-3.302-3.915
	s-3.302,1.745-3.302,3.915s0.928,3.915,3.302,3.915S246.613,22.636,246.613,20.466z M244.757,20.466
	c0,1.022-0.047,2.688-1.446,2.688s-1.446-1.667-1.446-2.688c0-1.022,0.047-2.688,1.446-2.688S244.757,19.445,244.757,20.466z"/>
<path fill-rule="evenodd" clip-rule="evenodd" fill="#1D1D1B" d="M254.347,24.208V19.02c0-1.289-0.597-2.468-2.028-2.468
	c-1.069,0-1.824,0.613-2.217,1.572h-0.032v-1.399h-1.745v7.483h1.745V20.97c0-1.006,0.503-2.783,1.761-2.783
	c0.173,0,0.377,0.016,0.503,0.142c0.299,0.283,0.267,1.242,0.267,1.603v4.276H254.347z"/>
<path fill-rule="evenodd" clip-rule="evenodd" fill="#1D1D1B" d="M266.884,24.208V13.361h-1.745v4.26h-0.031
	c-0.393-0.692-1.069-1.069-1.871-1.069c-2.075,0-2.563,2.264-2.563,3.915c0,1.729,0.377,3.915,2.563,3.915
	c0.692,0,1.603-0.55,1.871-1.211h0.031v1.038H266.884z M265.139,20.466c0,0.818-0.204,2.563-1.321,2.563
	c-1.211,0-1.289-1.698-1.289-2.563c0-0.912,0.031-2.562,1.289-2.562C265.028,17.904,265.139,19.602,265.139,20.466z"/>
<path fill-rule="evenodd" clip-rule="evenodd" fill="#1D1D1B" d="M274.587,20.011v-0.425c0-1.824-0.943-3.034-2.846-3.034
	c-2.232,0-3.207,1.399-3.207,3.522c0,2.468,1.116,4.308,3.773,4.308c0.707,0,1.415-0.079,2.091-0.299v-1.211
	c-0.44,0.157-0.959,0.283-1.43,0.283c-1.698,0-2.814-1.556-2.814-3.144H274.587z M272.936,18.957H270.2
	c0.079-0.755,0.66-1.289,1.415-1.289C272.417,17.668,272.936,18.156,272.936,18.957z"/>
<path fill-rule="evenodd" clip-rule="evenodd" fill="#1D1D1B" d="M280.433,18.376v-1.824c-1.258,0-1.839,0.519-2.421,1.556h-0.031
	v-1.383h-1.745v7.483h1.745v-3.286C277.98,19.162,278.641,18.376,280.433,18.376z"/>
<path fill-rule="evenodd" clip-rule="evenodd" fill="#1D1D1B" d="M293.989,18.761c0-3.544-0.991-5.4-4.763-5.4h-2.688v10.864h2.688
	c0.707,0,1.431-0.032,2.107-0.252C293.596,23.249,293.989,20.856,293.989,18.761z M291.961,18.761c0,1.181-0.047,3.119-1.195,3.827
	c-0.456,0.268-1.022,0.331-1.541,0.331h-0.849v-8.254h0.849C291.804,14.665,291.961,16.681,291.961,18.761z"/>
<path fill-rule="evenodd" clip-rule="evenodd" fill="#1D1D1B" d="M301.357,20.011v-0.425c0-1.824-0.943-3.034-2.846-3.034
	c-2.232,0-3.207,1.399-3.207,3.522c0,2.468,1.116,4.308,3.773,4.308c0.707,0,1.415-0.079,2.091-0.299v-1.211
	c-0.44,0.157-0.959,0.283-1.43,0.283c-1.698,0-2.814-1.556-2.814-3.144H301.357z M299.706,18.957h-2.736
	c0.079-0.755,0.66-1.289,1.415-1.289C299.187,17.668,299.706,18.156,299.706,18.957z"/>
<path fill-rule="evenodd" clip-rule="evenodd" fill="#1D1D1B" d="M309.042,24.208v-7.483h-1.745v3.238
	c0,1.006-0.503,2.783-1.761,2.783c-0.173,0-0.377-0.016-0.503-0.142c-0.299-0.283-0.267-1.242-0.267-1.603v-4.276h-1.745v5.188
	c0,1.289,0.598,2.468,2.028,2.468c1.053,0,1.824-0.629,2.217-1.572h0.031v1.399H309.042z"/>
<path fill-rule="evenodd" clip-rule="evenodd" fill="#1D1D1B" d="M315.845,17.935v-1.21h-2.217v-2.83l-1.745,1.053v1.777h-1.462
	v1.21h1.462v4.386c0,1.556,0.77,2.059,2.295,2.059c0.472,0,0.959-0.047,1.431-0.126v-1.226c-0.268,0.063-0.535,0.126-0.802,0.126
	c-1.085,0-1.179-0.802-1.179-1.682v-3.537H315.845z"/>
<path fill-rule="evenodd" clip-rule="evenodd" fill="#1D1D1B" d="M321.326,22.133c0-2.138-3.286-2.641-3.286-3.632
	c0-0.503,0.771-0.692,1.163-0.692c0.597,0,1.148,0.236,1.667,0.503v-1.478c-0.566-0.157-1.116-0.283-1.698-0.283
	c-1.399,0-2.688,0.645-2.688,2.201c0,1.981,3.223,2.72,3.223,3.6c0,0.597-0.849,0.676-1.289,0.676c-0.66,0-1.305-0.189-1.902-0.456
	v1.509c0.645,0.204,1.305,0.299,1.981,0.299C319.958,24.381,321.326,23.799,321.326,22.133z"/>
<path fill-rule="evenodd" clip-rule="evenodd" fill="#1D1D1B" d="M328.6,19.287c0-1.839-1.022-2.736-2.846-2.736
	c-2.248,0-3.427,1.415-3.427,3.584c0,2.61,1.336,4.245,4.009,4.245c0.739,0,1.478-0.126,2.185-0.346v-1.069
	c-0.409,0.141-0.833,0.189-1.258,0.189c-1.981,0-3.081-1.446-3.081-3.333c0-0.896,0.33-2.044,1.43-2.044
	c0.912,0,1.132,0.739,1.132,1.509H328.6z"/>
<path fill-rule="evenodd" clip-rule="evenodd" fill="#1D1D1B" d="M335.81,24.208V19.02c0-1.289-0.597-2.468-2.028-2.468
	c-1.069,0-1.824,0.613-2.217,1.572h-0.032v-4.764h-1.745v10.848h1.745V20.97c0-1.006,0.503-2.783,1.761-2.783
	c0.173,0,0.377,0.016,0.503,0.142c0.299,0.283,0.267,1.242,0.267,1.603v4.276H335.81z"/>
<path fill-rule="evenodd" clip-rule="evenodd" fill="#1D1D1B" d="M343.54,20.011v-0.425c0-1.824-0.943-3.034-2.846-3.034
	c-2.232,0-3.207,1.399-3.207,3.522c0,2.468,1.116,4.308,3.773,4.308c0.707,0,1.415-0.079,2.091-0.299v-1.211
	c-0.44,0.157-0.959,0.283-1.43,0.283c-1.698,0-2.814-1.556-2.814-3.144H343.54z M341.889,18.957h-2.736
	c0.079-0.755,0.66-1.289,1.415-1.289C341.37,17.668,341.889,18.156,341.889,18.957z"/>
<path fill-rule="evenodd" clip-rule="evenodd" fill="#1D1D1B" d="M351.241,24.208V19.02c0-1.289-0.597-2.468-2.028-2.468
	c-1.069,0-1.824,0.613-2.217,1.572h-0.032v-1.399h-1.745v7.483h1.745V20.97c0-1.006,0.503-2.783,1.761-2.783
	c0.173,0,0.377,0.016,0.503,0.142c0.299,0.283,0.267,1.242,0.267,1.603v4.276H351.241z"/>
</svg>
